<svg width="9" height="17" viewBox="0 0 9 17" fill="none" xmlns="http://www.w3.org/2000/svg">
<path d="M0.268945 15.3177C-0.107889 15.7214 -0.0860689 16.3542 0.317682 16.7311C0.721432 17.1079 1.35422 17.0861 1.73106 16.6823L0.268945 15.3177ZM1.73106 0.317681C1.35422 -0.0860691 0.721433 -0.107889 0.317682 0.268945C-0.0860687 0.645779 -0.107889 1.27857 0.268945 1.68232L1.73106 0.317681ZM7.36317 9.18232L6.63211 8.5L7.36317 9.18232ZM7.36317 7.81768L6.63211 8.5L7.36317 7.81768ZM1.73106 16.6823L8.09423 9.86464L6.63211 8.5L0.268945 15.3177L1.73106 16.6823ZM8.09423 7.13536L1.73106 0.317681L0.268945 1.68232L6.63211 8.5L8.09423 7.13536ZM8.09423 9.86464C8.81141 9.09622 8.81141 7.90378 8.09423 7.13536L6.63211 8.5L6.63211 8.5L8.09423 9.86464Z" fill="black"/>
</svg>
