<svg width="85" height="23" viewBox="0 0 85 23" fill="none" xmlns="http://www.w3.org/2000/svg">
<circle cx="11.5" cy="11.4999" r="11" stroke="white"/>
<path d="M11.3093 8.29544C12.023 7.58445 13.1393 8.2711 12.9819 9.14096C12.9452 9.34361 12.8071 9.50842 12.662 9.65455L11.0138 11.3142C10.8687 11.4604 10.731 11.6256 10.699 11.829C10.6684 12.0246 10.6975 12.2275 10.7867 12.4098C10.8918 12.6247 12.1028 13.815 12.6394 14.337C12.8069 14.4999 12.9671 14.6873 12.9939 14.9195C13.0912 15.7635 12.0077 16.3969 11.313 15.7047L8.28811 12.6912C7.90396 12.3085 7.90396 11.688 8.28811 11.3053L11.3093 8.29544Z" fill="white"/>
<circle cx="42.5" cy="11.4999" r="11" stroke="white"/>
<circle cx="73.5" cy="11.5005" r="11" transform="rotate(-180 73.5 11.5005)" stroke="white"/>
<path d="M73.6907 14.7049C72.977 15.4159 71.8607 14.7292 72.0181 13.8593C72.0548 13.6567 72.1929 13.4919 72.338 13.3458L73.9862 11.6861C74.1313 11.5399 74.269 11.3747 74.301 11.1713C74.3316 10.9757 74.3025 10.7728 74.2133 10.5905C74.1082 10.3756 72.8972 9.18527 72.3606 8.66333C72.1931 8.50038 72.0329 8.31301 72.0061 8.08084C71.9088 7.23683 72.9923 6.60341 73.687 7.29559L76.7119 10.3091C77.096 10.6918 77.096 11.3123 76.7119 11.695L73.6907 14.7049Z" fill="white"/>
<rect x="39" y="6.99988" width="2" height="9" fill="white"/>
<rect x="44" y="6.99988" width="2" height="9" fill="white"/>
</svg>
