<svg width="109" height="109" viewBox="0 0 109 109" fill="none" xmlns="http://www.w3.org/2000/svg">
<g filter="url(#filter0_d)">
<path d="M104.232 0H4.76855V81.5556L23.5561 100.444H104.232V0Z" fill="white"/>
<path d="M96.2746 21.7778H73.7295V55.1112H96.2746V21.7778Z" fill="#D70A26"/>
<path d="M79.4763 41.1112L80.5018 40.6967L79.4763 41.1112ZM82.7917 46.4445L83.6825 45.7872L83.6696 45.7694L83.6559 45.7521L82.7917 46.4445ZM88.5385 51.5556L88.9178 50.5121L88.5385 51.5556ZM93.6222 52.0001L93.8879 53.0787L93.6222 52.0001ZM97.8218 49.3334L98.7284 49.969L97.8218 49.3334ZM98.9269 44.889L97.8227 44.9347L98.9269 44.889ZM97.8218 41.1112L96.8917 41.7117L97.8218 41.1112ZM93.1801 38.0001L92.7381 39.0184L93.1801 38.0001ZM86.9913 36.6667L87.081 35.5593L86.9913 36.6667ZM90.9853 41.1112L89.9597 40.6967L90.9853 41.1112ZM87.6699 46.4445L86.8056 45.7521L86.7919 45.7694L86.7787 45.7872L87.6699 46.4445ZM81.9231 51.5556L81.5438 50.5121L81.9231 51.5556ZM76.8394 52.0001L76.5733 53.0787L76.8394 52.0001ZM72.6398 49.3334L71.7331 49.969L72.6398 49.3334ZM71.5346 44.889L72.6389 44.9347L71.5346 44.889ZM72.6398 41.1112L73.5695 41.7117L72.6398 41.1112ZM77.2814 38.0001L77.7235 39.0184L77.2814 38.0001ZM83.4703 36.6667L83.3801 35.5593L83.4703 36.6667ZM78.3711 34.4445C77.2664 34.4778 77.2664 34.478 77.2664 34.4781C77.2664 34.4782 77.2664 34.4784 77.2664 34.4785C77.2664 34.4788 77.2664 34.4791 77.2664 34.4795C77.2664 34.4804 77.2664 34.4814 77.2664 34.4828C77.2668 34.4855 77.2668 34.4892 77.2668 34.4938C77.2673 34.5032 77.2677 34.5165 77.2682 34.5336C77.2695 34.5678 77.2717 34.6172 77.2744 34.6803C77.2801 34.8063 77.2889 34.9874 77.3031 35.2115C77.3309 35.6591 77.3787 36.282 77.4583 36.985C77.6143 38.3623 77.9025 40.1545 78.4507 41.5256L80.5018 40.6967C80.0708 39.619 79.8065 38.0778 79.6544 36.734C79.5801 36.0764 79.5351 35.4918 79.509 35.0721C79.4962 34.8626 79.4878 34.6949 79.4825 34.5808C79.4798 34.5237 79.478 34.4801 79.4771 34.4513C79.4767 34.4369 79.4763 34.4263 79.4758 34.4195C79.4758 34.4162 79.4758 34.4137 79.4758 34.4124C79.4758 34.4117 79.4758 34.4112 79.4758 34.411C79.4758 34.4109 79.4758 34.4109 79.4758 34.4109V34.411C79.4758 34.4111 79.4758 34.4112 78.3711 34.4445ZM78.4507 41.5256C78.9626 42.8054 79.8494 44.2214 80.5712 45.2778C80.9386 45.8156 81.2754 46.2774 81.5208 46.6054C81.6437 46.7698 81.744 46.901 81.8143 46.9921C81.8497 47.0374 81.8771 47.073 81.8961 47.0974C81.9058 47.1094 81.9133 47.1192 81.9186 47.1258C81.9213 47.129 81.9231 47.1316 81.9248 47.1334C81.9253 47.1343 81.9262 47.1352 81.9266 47.1356C81.9266 47.1361 81.927 47.1365 81.927 47.1365C81.927 47.1365 81.927 47.137 81.9275 47.137C81.9275 47.137 81.9275 47.137 82.7917 46.4445C83.6559 45.7521 83.6559 45.7521 83.6559 45.7521C83.6559 45.7521 83.6555 45.7516 83.6551 45.7512C83.6546 45.7498 83.6528 45.7485 83.6511 45.7458C83.6471 45.741 83.6414 45.7334 83.633 45.7227C83.6166 45.7023 83.5923 45.6707 83.5605 45.6294C83.4964 45.5463 83.4031 45.4241 83.2877 45.2698C83.0565 44.961 82.7387 44.5254 82.393 44.0196C81.6897 42.9902 80.9187 41.7396 80.5018 40.6967L78.4507 41.5256ZM82.7917 46.4445C81.901 47.1018 81.901 47.1023 81.901 47.1023L81.9014 47.1027C81.9014 47.1032 81.9019 47.1032 81.9023 47.1036C81.9027 47.1045 81.9036 47.1058 81.9045 47.1072C81.9067 47.1098 81.9094 47.1138 81.9129 47.1183C81.9195 47.1276 81.9293 47.141 81.9421 47.1578C81.9668 47.1912 82.0031 47.2392 82.0495 47.2996C82.1419 47.421 82.2758 47.593 82.4447 47.8018C82.782 48.2183 83.2616 48.7854 83.8328 49.3876C84.9366 50.5512 86.5236 51.9983 88.1592 52.5992L88.9178 50.5121C87.7989 50.101 86.5125 48.9925 85.4317 47.8538C84.9105 47.3045 84.4702 46.7836 84.1599 46.4001C84.0052 46.2085 83.8836 46.0525 83.8018 45.9454C83.7612 45.8921 83.7302 45.8512 83.7099 45.8241C83.6997 45.8103 83.6926 45.8005 83.6878 45.7943C83.6856 45.7912 83.6842 45.789 83.6834 45.7876C83.6829 45.7872 83.6825 45.7867 83.6825 45.7867C83.6825 45.7867 83.6825 45.7872 82.7917 46.4445ZM88.1592 52.5992C89.1256 52.9543 90.0119 53.2214 90.9393 53.3214C91.8822 53.4223 92.8159 53.3454 93.8879 53.0787L93.3565 50.9214C92.4941 51.1365 91.8221 51.181 91.1741 51.1116C90.5119 51.0405 89.8231 50.8445 88.9178 50.5121L88.1592 52.5992ZM93.8879 53.0787C94.875 52.8325 95.7688 52.5339 96.5809 52.0432C97.4076 51.5441 98.0967 50.8792 98.7284 49.969L96.9151 48.6978C96.4372 49.3872 95.9682 49.821 95.443 50.1383C94.9033 50.4641 94.2521 50.6983 93.3565 50.9214L93.8879 53.0787ZM98.7284 49.969C99.3075 49.1338 99.6678 48.3387 99.8614 47.4761C100.052 46.6303 100.069 45.7721 100.031 44.8432L97.8227 44.9347C97.8576 45.7934 97.8319 46.4236 97.7055 46.9863C97.5826 47.5325 97.3536 48.0658 96.9151 48.6978L98.7284 49.969ZM100.031 44.8432C99.9622 43.1616 99.7094 42.0096 98.7514 40.5107L96.8917 41.7117C97.5875 42.8006 97.7656 43.5433 97.8227 44.9347L100.031 44.8432ZM98.7514 40.5107C97.3492 38.3158 95.4744 37.7946 93.6222 36.9818L92.7381 39.0184C94.879 39.958 95.9395 40.2208 96.8917 41.7117L98.7514 40.5107ZM93.6222 36.9818C91.1798 35.91 89.5659 35.7631 87.081 35.5593L86.9016 37.7742C89.3439 37.9745 90.6493 38.1018 92.7381 39.0184L93.6222 36.9818ZM87.081 35.5593C86.25 35.4911 85.3216 35.4921 84.617 35.5083C84.2611 35.5165 83.9552 35.5287 83.7377 35.539C83.629 35.5441 83.5419 35.5487 83.4813 35.5522C83.4513 35.5538 83.4278 35.5552 83.4115 35.5562C83.4031 35.5567 83.3969 35.5571 83.3925 35.5574C83.3903 35.5575 83.3885 35.5576 83.3872 35.5577C83.3863 35.5578 83.3858 35.5578 83.3854 35.5578L83.385 35.5578C83.385 35.5578 83.3845 35.5578 83.4548 36.6667C83.5247 37.7756 83.5247 37.7756 83.5247 37.7756C83.5247 37.7756 83.5251 37.7756 83.5255 37.7756C83.526 37.7755 83.5269 37.7755 83.5286 37.7754C83.5317 37.7752 83.5366 37.7749 83.5437 37.7745C83.5569 37.7737 83.5777 37.7724 83.6051 37.7709C83.6595 37.7678 83.7395 37.7636 83.8412 37.7588C84.045 37.7492 84.3327 37.7376 84.6674 37.7299C85.3442 37.7144 86.1841 37.7153 86.9016 37.7742L87.081 35.5593ZM92.0905 34.4445C90.9857 34.4112 90.9857 34.4111 90.9857 34.411V34.4109C90.9857 34.4109 90.9857 34.4109 90.9857 34.411C90.9857 34.4112 90.9857 34.4117 90.9857 34.4124C90.9857 34.4137 90.9853 34.4162 90.9853 34.4195C90.9853 34.4263 90.9849 34.4369 90.9844 34.4513C90.9831 34.4801 90.9813 34.5237 90.9791 34.5808C90.9738 34.6949 90.9654 34.8626 90.9522 35.0721C90.9261 35.4918 90.8814 36.0764 90.8067 36.734C90.6551 38.0778 90.3907 39.619 89.9597 40.6967L92.0104 41.5256C92.5586 40.1545 92.8473 38.3623 93.0029 36.985C93.0824 36.282 93.1302 35.6591 93.1585 35.2115C93.1722 34.9874 93.1815 34.8063 93.1872 34.6803C93.1899 34.6172 93.1916 34.5678 93.193 34.5336C93.1938 34.5165 93.1943 34.5032 93.1943 34.4938C93.1947 34.4892 93.1947 34.4855 93.1947 34.4828C93.1947 34.4814 93.1947 34.4804 93.1947 34.4795C93.1947 34.4791 93.1947 34.4788 93.1947 34.4785C93.1947 34.4784 93.1947 34.4782 93.1947 34.4781C93.1947 34.478 93.1947 34.4778 92.0905 34.4445ZM89.9597 40.6967C89.5429 41.7396 88.7719 42.9902 88.0682 44.0196C87.7229 44.5254 87.4051 44.961 87.1739 45.2698C87.0585 45.4241 86.9652 45.5463 86.9011 45.6294C86.8693 45.6707 86.8445 45.7023 86.8282 45.7227C86.8202 45.7334 86.814 45.741 86.8105 45.7458C86.8083 45.7485 86.8069 45.7498 86.8061 45.7512C86.8056 45.7516 86.8056 45.7521 86.8052 45.7521C86.8052 45.7521 86.8056 45.7521 87.6699 46.4445C88.5341 47.137 88.5341 47.137 88.5341 47.137V47.1365C88.5345 47.1365 88.5345 47.1361 88.535 47.1356C88.5354 47.1352 88.5359 47.1343 88.5367 47.1334C88.5381 47.1316 88.5403 47.129 88.5429 47.1258C88.5482 47.1192 88.5557 47.1094 88.565 47.0974C88.5845 47.073 88.6119 47.0374 88.6468 46.9921C88.7171 46.901 88.8174 46.7698 88.9403 46.6054C89.1857 46.2774 89.523 45.8156 89.8899 45.2778C90.6122 44.2214 91.499 42.8054 92.0104 41.5256L89.9597 40.6967ZM87.6699 46.4445C86.7787 45.7872 86.7787 45.7867 86.7791 45.7867C86.7791 45.7867 86.7787 45.7872 86.7782 45.7876C86.7773 45.789 86.7756 45.7912 86.7734 45.7943C86.7689 45.8005 86.7614 45.8103 86.7513 45.8241C86.7314 45.8512 86.7004 45.8921 86.6593 45.9454C86.5775 46.0525 86.4564 46.2085 86.3017 46.4001C85.9914 46.7836 85.5506 47.3045 85.0294 47.8538C83.9486 48.9925 82.6622 50.101 81.5438 50.5121L82.3024 52.5992C83.9375 51.9983 85.5245 50.5512 86.6288 49.3876C87.1999 48.7854 87.6796 48.2183 88.0164 47.8018C88.1853 47.593 88.3192 47.421 88.4121 47.2996C88.4585 47.2392 88.4943 47.1912 88.5195 47.1578C88.5319 47.141 88.5416 47.1276 88.5487 47.1183C88.5522 47.1138 88.5549 47.1098 88.5566 47.1072C88.558 47.1058 88.5584 47.1045 88.5593 47.1036C88.5597 47.1032 88.5597 47.1032 88.5602 47.1027V47.1023C88.5606 47.1023 88.5606 47.1018 87.6699 46.4445ZM81.5438 50.5121C80.6384 50.8445 79.9497 51.0405 79.2871 51.1116C78.6394 51.181 77.9671 51.1365 77.1051 50.9214L76.5733 53.0787C77.6457 53.3454 78.5793 53.4223 79.5218 53.3214C80.4497 53.2214 81.3356 52.9543 82.3024 52.5992L81.5438 50.5121ZM77.1051 50.9214C76.209 50.6983 75.5578 50.4641 75.0185 50.1383C74.4934 49.821 74.0243 49.3872 73.546 48.6978L71.7331 49.969C72.3648 50.8792 73.054 51.5441 73.8802 52.0432C74.6927 52.5339 75.5866 52.8325 76.5733 53.0787L77.1051 50.9214ZM73.546 48.6978C73.1075 48.0658 72.8785 47.5325 72.7561 46.9863C72.6296 46.4236 72.6036 45.7934 72.6389 44.9347L70.4304 44.8432C70.3924 45.7721 70.41 46.6303 70.6001 47.4761C70.7938 48.3387 71.1536 49.1338 71.7331 49.969L73.546 48.6978ZM72.6389 44.9347C72.6955 43.5433 72.8736 42.8006 73.5695 41.7117L71.7097 40.5107C70.7522 42.0096 70.4989 43.1616 70.4304 44.8432L72.6389 44.9347ZM73.5695 41.7117C74.5221 40.2208 75.5822 39.958 77.7235 39.0184L76.8389 36.9818C74.9867 37.7946 73.1119 38.3158 71.7097 40.5107L73.5695 41.7117ZM77.7235 39.0184C79.8118 38.1018 81.1176 37.9745 83.56 37.7742L83.3801 35.5593C80.8957 35.7631 79.2813 35.91 76.8389 36.9818L77.7235 39.0184ZM83.56 37.7742C84.3075 37.7128 84.6868 37.7169 84.8561 37.7279C84.9401 37.7334 84.9525 37.7393 84.9216 37.7323C84.9052 37.7285 84.8712 37.7198 84.8256 37.7028C84.8022 37.6941 84.7748 37.6828 84.7443 37.6682C84.7293 37.6608 84.7129 37.6526 84.6957 37.6432C84.6873 37.6386 84.6784 37.6337 84.6696 37.6284C84.6652 37.6258 84.6603 37.6231 84.6559 37.6204C84.6537 37.619 84.6515 37.6176 84.6488 37.6162C84.6479 37.6154 84.6462 37.6144 84.6453 37.614C84.6435 37.6129 84.6417 37.6118 85.223 36.6667C85.8039 35.7216 85.8026 35.7206 85.8008 35.7194C85.7999 35.7191 85.7982 35.718 85.7973 35.7173C85.7946 35.7159 85.7924 35.7145 85.7902 35.713C85.7854 35.7102 85.7809 35.7075 85.7761 35.7049C85.7672 35.6995 85.7579 35.6944 85.7491 35.6895C85.731 35.6797 85.7133 35.6707 85.6961 35.6625C85.662 35.6461 85.6289 35.6322 85.597 35.6203C85.5343 35.5968 85.4719 35.5792 85.4122 35.5655C85.2947 35.5386 85.159 35.5207 84.9985 35.5103C84.6784 35.4895 84.1811 35.4936 83.3801 35.5593L83.56 37.7742Z" fill="white"/>
<path d="M16.3607 59.4027C16.2192 59.1965 16.0282 59.0472 15.7877 58.9547C15.5543 58.8552 15.3068 58.8054 15.0451 58.8054C14.8895 58.8054 14.7374 58.8232 14.5889 58.8587C14.4474 58.8943 14.3166 58.9512 14.1963 59.0294C14.0832 59.1076 13.9912 59.2107 13.9205 59.3387C13.8498 59.4596 13.8144 59.6054 13.8144 59.776C13.8144 60.032 13.9028 60.2276 14.0796 60.3627C14.2564 60.4978 14.4757 60.6152 14.7374 60.7147C14.9991 60.8143 15.2856 60.9103 15.5968 61.0027C15.908 61.0952 16.1944 61.2232 16.4561 61.3867C16.7178 61.5503 16.9371 61.7672 17.1139 62.0374C17.2907 62.3076 17.3792 62.6667 17.3792 63.1147C17.3792 63.52 17.3049 63.8756 17.1564 64.1814C17.0078 64.48 16.8062 64.7289 16.5516 64.928C16.3041 65.1272 16.0141 65.2765 15.6816 65.376C15.3492 65.4756 14.9991 65.5254 14.6313 65.5254C14.1645 65.5254 13.7154 65.4472 13.2839 65.2907C12.8525 65.1343 12.4811 64.8712 12.1699 64.5014L13.1778 63.52C13.3405 63.7689 13.5527 63.9645 13.8144 64.1067C14.0832 64.2418 14.3661 64.3094 14.6631 64.3094C14.8187 64.3094 14.9744 64.288 15.13 64.2454C15.2856 64.2027 15.427 64.1387 15.5543 64.0534C15.6816 63.968 15.7842 63.8614 15.862 63.7334C15.9398 63.5983 15.9787 63.4454 15.9787 63.2747C15.9787 62.9974 15.8903 62.784 15.7135 62.6347C15.5367 62.4854 15.3174 62.3609 15.0557 62.2614C14.794 62.1547 14.5075 62.0552 14.1963 61.9627C13.8851 61.8703 13.5987 61.7458 13.337 61.5894C13.0753 61.4258 12.856 61.2125 12.6792 60.9494C12.5024 60.6792 12.4139 60.32 12.4139 59.8721C12.4139 59.4809 12.4917 59.1432 12.6473 58.8587C12.81 58.5743 13.0187 58.3396 13.2733 58.1547C13.535 57.9627 13.8321 57.8205 14.1645 57.728C14.4969 57.6356 14.8364 57.5894 15.183 57.5894C15.5791 57.5894 15.961 57.6498 16.3288 57.7707C16.7037 57.8916 17.0397 58.0907 17.3367 58.3681L16.3607 59.4027ZM20.3097 58.9974H18.0075V57.7814H23.9487V58.9974H21.6465V65.3334H20.3097V58.9974ZM26.3191 57.7814H27.4755L30.7114 65.3334H29.1837L28.4834 63.6054H25.2263L24.5473 65.3334H23.0514L26.3191 57.7814ZM28.0166 62.4534L26.8602 59.3814L25.6826 62.4534H28.0166ZM31.5462 57.7814H36.3947V58.9974H32.883V60.9814H36.1931V62.1974H32.883V65.3334H31.5462V57.7814ZM37.6383 57.7814H42.4868V58.9974H38.9751V60.9814H42.2852V62.1974H38.9751V65.3334H37.6383V57.7814ZM43.3273 61.5894C43.3273 60.9849 43.4263 60.4374 43.6244 59.9467C43.8224 59.4489 44.0947 59.0258 44.4413 58.6774C44.7949 58.3289 45.2122 58.0623 45.6932 57.8774C46.1812 57.6854 46.7152 57.5894 47.2951 57.5894C47.8822 57.5823 48.4197 57.6712 48.9078 57.856C49.3958 58.0338 49.8167 58.2969 50.1703 58.6454C50.5239 58.9938 50.7998 59.4134 50.9978 59.904C51.1959 60.3947 51.2949 60.9423 51.2949 61.5467C51.2949 62.1369 51.1959 62.6738 50.9978 63.1574C50.7998 63.6409 50.5239 64.0569 50.1703 64.4054C49.8167 64.7538 49.3958 65.0276 48.9078 65.2267C48.4197 65.4187 47.8822 65.5183 47.2951 65.5254C46.7152 65.5254 46.1812 65.4329 45.6932 65.248C45.2122 65.056 44.7949 64.7894 44.4413 64.448C44.0947 64.0996 43.8224 63.6836 43.6244 63.2C43.4263 62.7165 43.3273 62.1796 43.3273 61.5894ZM44.7277 61.504C44.7277 61.9094 44.7879 62.2827 44.9081 62.624C45.0354 62.9654 45.2122 63.2605 45.4386 63.5094C45.6649 63.7583 45.9337 63.9538 46.2449 64.096C46.5632 64.2383 46.9168 64.3094 47.3057 64.3094C47.6948 64.3094 48.0484 64.2383 48.3667 64.096C48.685 63.9538 48.9573 63.7583 49.1836 63.5094C49.41 63.2605 49.5832 62.9654 49.7035 62.624C49.8308 62.2827 49.8945 61.9094 49.8945 61.504C49.8945 61.1272 49.8308 60.7752 49.7035 60.448C49.5832 60.1209 49.41 59.8365 49.1836 59.5947C48.9573 59.3458 48.685 59.1538 48.3667 59.0187C48.0484 58.8765 47.6948 58.8054 47.3057 58.8054C46.9168 58.8054 46.5632 58.8765 46.2449 59.0187C45.9337 59.1538 45.6649 59.3458 45.4386 59.5947C45.2122 59.8365 45.0354 60.1209 44.9081 60.448C44.7879 60.7752 44.7277 61.1272 44.7277 61.504ZM52.568 57.7814H55.178C55.5387 57.7814 55.8853 57.8169 56.2177 57.888C56.5572 57.952 56.8578 58.0658 57.1195 58.2294C57.3812 58.3929 57.5898 58.6134 57.7454 58.8907C57.901 59.168 57.9789 59.5201 57.9789 59.9467C57.9789 60.4943 57.8268 60.9529 57.5226 61.3227C57.2256 61.6925 56.7977 61.9165 56.2389 61.9947L58.2335 65.3334H56.6208L54.8809 62.1334H53.9048V65.3334H52.568V57.7814ZM54.9445 60.9814C55.1355 60.9814 55.3265 60.9743 55.5175 60.96C55.7084 60.9387 55.8817 60.896 56.0373 60.832C56.2 60.7609 56.3308 60.6578 56.4299 60.5227C56.5289 60.3805 56.5784 60.1849 56.5784 59.936C56.5784 59.7156 56.5324 59.5378 56.4405 59.4027C56.3485 59.2676 56.2283 59.168 56.0798 59.104C55.9312 59.0329 55.765 58.9867 55.5811 58.9654C55.4043 58.944 55.231 58.9334 55.0613 58.9334H53.9048V60.9814H54.9445ZM59.2511 57.7814H62.2111C62.7062 57.7814 63.1837 57.8596 63.6434 58.016C64.1032 58.1654 64.5098 58.3965 64.8635 58.7094C65.2171 59.0223 65.5001 59.4169 65.7122 59.8934C65.9244 60.3627 66.0305 60.9174 66.0305 61.5574C66.0305 62.2045 65.9068 62.7663 65.6592 63.2427C65.4187 63.712 65.104 64.1032 64.715 64.416C64.333 64.7218 63.9051 64.9529 63.4312 65.1094C62.9644 65.2587 62.5047 65.3334 62.052 65.3334H59.2511V57.7814ZM61.5852 64.1174C62.0025 64.1174 62.395 64.0712 62.7628 63.9787C63.1377 63.8792 63.463 63.7298 63.7389 63.5307C64.0147 63.3245 64.2305 63.0614 64.3861 62.7414C64.5487 62.4143 64.6301 62.0196 64.6301 61.5574C64.6301 61.1023 64.5594 60.7112 64.4179 60.384C64.2764 60.0569 64.0784 59.7938 63.8238 59.5947C63.5762 59.3885 63.2791 59.2392 62.9326 59.1467C62.5931 59.0472 62.2182 58.9974 61.808 58.9974H60.5879V64.1174H61.5852ZM70.9829 59.4027C70.8415 59.1965 70.6505 59.0472 70.41 58.9547C70.1766 58.8552 69.9291 58.8054 69.6674 58.8054C69.5118 58.8054 69.3597 58.8232 69.2112 58.8587C69.0697 58.8943 68.9388 58.9512 68.8186 59.0294C68.7054 59.1076 68.6135 59.2107 68.5428 59.3387C68.472 59.4596 68.4367 59.6054 68.4367 59.776C68.4367 60.032 68.5251 60.2276 68.7019 60.3627C68.8787 60.4978 69.098 60.6152 69.3597 60.7147C69.6214 60.8143 69.9078 60.9103 70.2191 61.0027C70.5303 61.0952 70.8167 61.2232 71.0784 61.3867C71.3401 61.5503 71.5594 61.7672 71.7362 62.0374C71.913 62.3076 72.0014 62.6667 72.0014 63.1147C72.0014 63.52 71.9272 63.8756 71.7786 64.1814C71.6301 64.48 71.4285 64.7289 71.1739 64.928C70.9263 65.1272 70.6364 65.2765 70.3039 65.376C69.9715 65.4756 69.6214 65.5254 69.2536 65.5254C68.7868 65.5254 68.3376 65.4472 67.9062 65.2907C67.4747 65.1343 67.1034 64.8712 66.7922 64.5014L67.8001 63.52C67.9628 63.7689 68.175 63.9645 68.4367 64.1067C68.7054 64.2418 68.9884 64.3094 69.2854 64.3094C69.441 64.3094 69.5966 64.288 69.7522 64.2454C69.9078 64.2027 70.0493 64.1387 70.1766 64.0534C70.3039 63.968 70.4065 63.8614 70.4843 63.7334C70.5621 63.5983 70.601 63.4454 70.601 63.2747C70.601 62.9974 70.5126 62.784 70.3358 62.6347C70.1589 62.4854 69.9397 62.3609 69.678 62.2614C69.4163 62.1547 69.1298 62.0552 68.8186 61.9627C68.5074 61.8703 68.2209 61.7458 67.9592 61.5894C67.6975 61.4258 67.4783 61.2125 67.3015 60.9494C67.1246 60.6792 67.0362 60.32 67.0362 59.8721C67.0362 59.4809 67.114 59.1432 67.2696 58.8587C67.4323 58.5743 67.641 58.3396 67.8956 58.1547C68.1573 57.9627 68.4543 57.8205 68.7868 57.728C69.1192 57.6356 69.4587 57.5894 69.8053 57.5894C70.2014 57.5894 70.5833 57.6498 70.9511 57.7707C71.326 57.8916 71.6619 58.0907 71.959 58.3681L70.9829 59.4027ZM73.3935 57.7814H74.7303V60.7894H78.242V57.7814H79.5788V65.3334H78.242V62.0054H74.7303V65.3334H73.3935V57.7814ZM81.2255 57.7814H82.5623V65.3334H81.2255V57.7814ZM84.2103 57.7814H86.8202C87.1809 57.7814 87.5275 57.8169 87.8599 57.888C88.1994 57.952 88.5 58.0658 88.7617 58.2294C89.0234 58.3929 89.2321 58.6134 89.3877 58.8907C89.5433 59.168 89.6211 59.5201 89.6211 59.9467C89.6211 60.4943 89.469 60.9529 89.1649 61.3227C88.8678 61.6925 88.4399 61.9165 87.8811 61.9947L89.8757 65.3334H88.2631L86.5231 62.1334H85.547V65.3334H84.2103V57.7814ZM86.5868 60.9814C86.7777 60.9814 86.9687 60.9743 87.1597 60.96C87.3507 60.9387 87.5239 60.896 87.6795 60.832C87.8422 60.7609 87.9731 60.6578 88.0721 60.5227C88.1711 60.3805 88.2206 60.1849 88.2206 59.936C88.2206 59.7156 88.1746 59.5378 88.0827 59.4027C87.9907 59.2676 87.8705 59.168 87.722 59.104C87.5734 59.0329 87.4072 58.9867 87.2233 58.9654C87.0465 58.944 86.8732 58.9334 86.7035 58.9334H85.547V60.9814H86.5868ZM90.8929 57.7814H95.8687V58.9974H92.2297V60.8534H95.6777V62.0694H92.2297V64.1174H96.0597V65.3334H90.8929V57.7814ZM13.6871 68.8925V73.5218C13.6871 73.7565 13.7189 74.0018 13.7826 74.2578C13.8462 74.5067 13.9523 74.7378 14.1008 74.9511C14.2494 75.1645 14.4439 75.3387 14.6844 75.4738C14.9248 75.6089 15.2219 75.6765 15.5756 75.6765C15.9292 75.6765 16.2263 75.6089 16.4667 75.4738C16.7072 75.3387 16.9017 75.1645 17.0503 74.9511C17.1988 74.7378 17.3049 74.5067 17.3686 74.2578C17.4322 74.0018 17.464 73.7565 17.464 73.5218V68.8925H18.4825V73.6818C18.4825 74.1227 18.4083 74.5245 18.2597 74.8871C18.1112 75.2427 17.9061 75.552 17.6444 75.8151C17.3827 76.0783 17.075 76.2809 16.7214 76.4231C16.3677 76.5654 15.9858 76.6365 15.5756 76.6365C15.1653 76.6365 14.7834 76.5654 14.4297 76.4231C14.0761 76.2809 13.7684 76.0783 13.5067 75.8151C13.245 75.552 13.0399 75.2427 12.8914 74.8871C12.7428 74.5245 12.6686 74.1227 12.6686 73.6818V68.8925H13.6871ZM20.2766 68.8925H21.6134L25.7511 75.1005H25.7723V68.8925H26.7908V76.4445H25.4964L21.3163 70.2365H21.2951V76.4445H20.2766V68.8925ZM28.7207 68.8925H29.7392V76.4445H28.7207V68.8925ZM30.6444 68.8925H31.822L34.0288 75.0365H34.05L36.3416 68.8925H37.4556L34.4956 76.4445H33.5407L30.6444 68.8925ZM38.3562 68.8925H43.2047V69.8525H39.3747V72.1031H42.9395V73.0631H39.3747V75.4845H43.3957V76.4445H38.3562V68.8925ZM44.8421 68.8925H47.4839C47.9649 68.8925 48.3609 68.96 48.6722 69.0952C48.9834 69.2232 49.2274 69.3903 49.4042 69.5965C49.5881 69.7956 49.7154 70.0232 49.7861 70.2792C49.8569 70.528 49.8922 70.7698 49.8922 71.0045C49.8922 71.2463 49.8498 71.4809 49.7649 71.7085C49.6801 71.9289 49.5563 72.1316 49.3936 72.3165C49.238 72.4943 49.0435 72.6472 48.8101 72.7752C48.5837 72.896 48.3291 72.9707 48.0462 72.9991L50.1787 76.4445H48.9056L46.9957 73.1165H45.8606V76.4445H44.8421V68.8925ZM45.8606 72.2205H47.1974C47.3955 72.2205 47.59 72.2063 47.781 72.1778C47.979 72.1423 48.1523 72.0818 48.3008 71.9965C48.4564 71.9112 48.5802 71.7903 48.6722 71.6338C48.7641 71.4703 48.8101 71.2605 48.8101 71.0045C48.8101 70.7485 48.7641 70.5423 48.6722 70.3858C48.5802 70.2223 48.4564 70.0978 48.3008 70.0125C48.1523 69.9272 47.979 69.8703 47.781 69.8418C47.59 69.8063 47.3955 69.7885 47.1974 69.7885H45.8606V72.2205ZM51.5509 74.8658C51.7348 75.1431 51.9682 75.3494 52.2511 75.4845C52.5411 75.6125 52.8381 75.6765 53.1423 75.6765C53.312 75.6765 53.4853 75.6516 53.6621 75.6018C53.839 75.5449 53.9981 75.4631 54.1396 75.3565C54.2881 75.2498 54.4083 75.1183 54.5003 74.9618C54.5922 74.8054 54.6382 74.624 54.6382 74.4178C54.6382 74.1263 54.5463 73.9058 54.3624 73.7565C54.1785 73.6 53.9486 73.472 53.6727 73.3725C53.404 73.2658 53.1069 73.1663 52.7815 73.0738C52.4633 72.9743 52.1662 72.8391 51.8904 72.6685C51.6216 72.4978 51.3952 72.2703 51.2113 71.9858C51.0275 71.6943 50.9355 71.3032 50.9355 70.8125C50.9355 70.592 50.9815 70.3574 51.0734 70.1085C51.1724 69.8596 51.3245 69.632 51.5296 69.4258C51.7348 69.2196 51.9964 69.0489 52.3147 68.9138C52.6401 68.7716 53.0291 68.7005 53.4818 68.7005C53.892 68.7005 54.2846 68.7574 54.6594 68.8712C55.0343 68.9849 55.3632 69.216 55.6461 69.5645L54.8186 70.3218C54.6913 70.1227 54.5109 69.9627 54.2775 69.8418C54.0441 69.7209 53.7788 69.6605 53.4818 69.6605C53.1989 69.6605 52.9619 69.6996 52.7709 69.7778C52.587 69.8489 52.4385 69.9449 52.3253 70.0658C52.2122 70.1796 52.1308 70.304 52.0813 70.4392C52.0389 70.5743 52.0177 70.6987 52.0177 70.8125C52.0177 71.1325 52.1096 71.3778 52.2935 71.5485C52.4774 71.7191 52.7037 71.8578 52.9725 71.9645C53.2484 72.0711 53.5454 72.1671 53.8637 72.2525C54.1891 72.3378 54.4861 72.4587 54.7549 72.6152C55.0308 72.7645 55.2606 72.9707 55.4445 73.2338C55.6284 73.4898 55.7204 73.8454 55.7204 74.3005C55.7204 74.6631 55.6496 74.9903 55.5082 75.2818C55.3738 75.5734 55.1899 75.8187 54.9565 76.0178C54.7231 76.2169 54.4472 76.3698 54.1289 76.4765C53.8107 76.5832 53.4712 76.6365 53.1104 76.6365C52.6295 76.6365 52.1733 76.5511 51.7418 76.3805C51.3104 76.2098 50.9673 75.9467 50.7127 75.5911L51.5509 74.8658ZM57.2234 68.8925H58.2419V76.4445H57.2234V68.8925ZM61.7461 69.8525H59.3271V68.8925H65.1835V69.8525H62.7646V76.4445H61.7461V69.8525ZM68.0401 73.2231L65.1964 68.8925H66.5018L68.5494 72.2098L70.6602 68.8925H71.902L69.0586 73.2231V76.4445H68.0401V73.2231Z" fill="#D70A26"/>
<path d="M96.2746 68.8889H73.7295V77.3333H96.2746V68.8889Z" fill="#D70A26"/>
</g>
<defs>
<filter id="filter0_d" x="-1" y="0" width="111" height="112" filterUnits="userSpaceOnUse" color-interpolation-filters="sRGB">
<feFlood flood-opacity="0" result="BackgroundImageFix"/>
<feColorMatrix in="SourceAlpha" type="matrix" values="0 0 0 0 0 0 0 0 0 0 0 0 0 0 0 0 0 0 127 0"/>
<feOffset dy="4"/>
<feGaussianBlur stdDeviation="2"/>
<feColorMatrix type="matrix" values="0 0 0 0 0 0 0 0 0 0 0 0 0 0 0 0 0 0 0.25 0"/>
<feBlend mode="normal" in2="BackgroundImageFix" result="effect1_dropShadow"/>
<feBlend mode="normal" in="SourceGraphic" in2="effect1_dropShadow" result="shape"/>
</filter>
</defs>
</svg>
